PathFileType	4	(X/Y/Z)	./resultDataOpenSim/trcMotMarkerGrf/sub10/qtm-02-04.trc
DataRate	CameraRate	NumFrames	NumMarkers	Units	OrigDataRate	OrigDataStartFrame	OrigNumFrames
250.000000	250.000000	9	24	m	250.000000	62	490
Frame#	Time	L.Toe.Tip			R.Toe.Tip			L.Ankle.Lat			R.Ankle.Lat			L.Ankle.Med			R.Ankle.Med			L.Heel			R.Heel			L.Knee.Lat			R.Knee.Lat			L.Knee.Med			R.Knee.Med			L.Thigh.Upper			R.Thigh.Upper			L.ASIS			R.ASIS			V.Sacral			L.Acromium			R.Acromium			C7			L.Elbow			R.Elbow			L.Wrist.Lat			R.Wrist.Lat
		X1	Y1	Z1	X2	Y2	Z2	X3	Y3	Z3	X4	Y4	Z4	X5	Y5	Z5	X6	Y6	Z6	X7	Y7	Z7	X8	Y8	Z8	X9	Y9	Z9	X10	Y10	Z10	X11	Y11	Z11	X12	Y12	Z12	X13	Y13	Z13	X14	Y14	Z14	X15	Y15	Z15	X16	Y16	Z16	X17	Y17	Z17	X18	Y18	Z18	X19	Y19	Z19	X20	Y20	Z20	X21	Y21	Z21	X22	Y22	Z22	X23	Y23	Z23	X24	Y24	Z24

62	0.244	-1.4623172	0.053568986	-0.11504851	-0.74975454	0.040753671	0.02143993	-1.4752492	0.18906234	-0.15093223	-0.88588824	0.051720081	0.066540531	-1.4460241	0.18309303	-0.073264719	-0.87723116	0.081282677	-0.017481208	-1.519608	0.23319876	-0.094872128	-0.94146598	0.027602621	0.021059256	-1.1687111	0.41578796	-0.18313208	-0.90106846	0.45097705	0.10765721	-1.148405	0.37169066	-0.071617427	-0.90765334	0.45990814	-0.021017786	-1.0843271	0.78665811	-0.20897565	-1.0070043	0.85833001	0.16802042	-1.0068876	0.89477388	-0.15938993	-0.96010491	0.94047439	0.071166698	-1.1830122	0.93089383	-0.0042854241	-1.0300463	1.3856345	-0.19088349	-1.0684605	1.3782302	0.13282037	-1.1346044	1.4129108	-0.039427624	-1.1052489	1.0417567	-0.25615588	-1.2148733	1.0661043	0.16078064	-0.90746014	0.89439628	-0.21489161	-1.1649834	0.84471873	0.24389886
63	0.248	-1.4573321	0.055459071	-0.11548245	-0.74952616	0.040559095	0.021287559	-1.465705	0.19219458	-0.15119026	-0.88572412	0.051793629	0.06635951	-1.4349955	0.18577657	-0.073970327	-0.87704093	0.081131023	-0.017799693	-1.5078641	0.23790964	-0.09605253	-0.94141303	0.027629706	0.021040243	-1.1575322	0.41493589	-0.18397963	-0.89704204	0.45085466	0.10718832	-1.136353	0.37043137	-0.072433874	-0.9048116	0.45970011	-0.021354189	-1.0773539	0.78635178	-0.20858964	-1.0014851	0.85902884	0.16849646	-1.0005522	0.89499924	-0.15893356	-0.95453306	0.94112234	0.071484929	-1.1769091	0.93157927	-0.0043516217	-1.0241692	1.3864179	-0.19042981	-1.062909	1.3786758	0.13326522	-1.1291618	1.4133162	-0.039045917	-1.1004129	1.042956	-0.25571377	-1.2084722	1.0662562	0.16130724	-0.90362662	0.894033	-0.2150294	-1.1580873	0.84488366	0.24464158
64	0.252	-1.451665	0.057444409	-0.11601419	-0.74935478	0.040416142	0.021067693	-1.4559625	0.19517181	-0.15139419	-0.88556666	0.051859045	0.066198247	-1.4248413	0.1882765	-0.074261627	-0.87688775	0.081025043	-0.018070265	-1.4959868	0.24227729	-0.097392364	-0.94138069	0.027645447	0.021029432	-1.146274	0.41415735	-0.1848278	-0.89308105	0.4507321	0.10664272	-1.1243359	0.36948989	-0.073145398	-0.90223288	0.45954282	-0.021618137	-1.0704258	0.78614331	-0.20818148	-0.996015	0.85966874	0.16898593	-0.99433525	0.89523238	-0.15852774	-0.94901837	0.94177659	0.071867191	-1.1708726	0.93225219	-0.0044336733	-1.0183465	1.3871951	-0.19003446	-1.0573217	1.3791141	0.1336873	-1.1237107	1.4137939	-0.038650181	-1.0955517	1.0441182	-0.25528733	-1.2020417	1.0663967	0.16190622	-0.89978057	0.89363722	-0.21521046	-1.150998	0.84501087	0.24544649
65	0.256	-1.4451825	0.059592347	-0.11666302	-0.7492273	0.040304461	0.020804407	-1.4460259	0.19801122	-0.1515585	-0.88542674	0.051919264	0.066057643	-1.415051	0.19064408	-0.074337629	-0.87676253	0.080950238	-0.01830414	-1.4843094	0.24614978	-0.098180077	-0.941363	0.027650202	0.02101954	-1.134983	0.41347846	-0.18564186	-0.88945847	0.45072514	0.10612515	-1.1122879	0.36890995	-0.073762987	-0.89988493	0.45945299	-0.021822087	-1.063536	0.78603932	-0.20777483	-0.99060082	0.86023902	0.16945267	-0.9881993	0.89550142	-0.15815984	-0.94338986	0.9423756	0.072214322	-1.1649071	0.93291047	-0.0045336173	-1.0125863	1.3879715	-0.1896884	-1.0516813	1.3795479	0.1340914	-1.1182464	1.414373	-0.038239071	-1.0906642	1.0452476	-0.25487713	-1.1955762	1.0665264	0.16258146	-0.89591522	0.8932158	-0.21542018	-1.1437861	0.84512713	0.24625892
66	0.26	-1.43774	0.061946854	-0.1174476	-0.74912215	0.040203844	0.020547679	-1.4359379	0.2007287	-0.15167124	-0.88531482	0.051978794	0.065941585	-1.4051591	0.19293683	-0.07436188	-0.87663306	0.080897281	-0.018514844	-1.4730366	0.24952623	-0.098315399	-0.9413524	0.027646433	0.021005884	-1.1237047	0.41292241	-0.18638115	-0.88616583	0.45086306	0.10569447	-1.0999926	0.36873321	-0.074361682	-0.89766519	0.45942911	-0.022019144	-1.0566884	0.7860349	-0.20743236	-0.98534033	0.86073997	0.16984507	-0.98211862	0.89582928	-0.15782178	-0.93756499	0.94289197	0.072480775	-1.1590167	0.93355202	-0.0046534267	-1.0068724	1.3887516	-0.18938252	-1.0459661	1.3799882	0.134476	-1.1127561	1.415061	-0.037811065	-1.0857533	1.0463474	-0.25448305	-1.1890824	1.0666434	0.16331115	-0.89205613	0.89277093	-0.21566176	-1.1365481	0.8452554	0.24700549
67	0.264	-1.4292165	0.064480198	-0.11835994	-0.74903062	0.040106116	0.020325716	-1.425735	0.20334376	-0.15170217	-0.88522932	0.052037621	0.065848452	-1.3950146	0.1951815	-0.074364057	-0.87647713	0.080863868	-0.018714946	-1.4621895	0.25248356	-0.098073132	-0.94134433	0.027637135	0.020991018	-1.1124389	0.4125068	-0.18701855	-0.8830744	0.45111455	0.10537126	-1.0872248	0.36898	-0.075044481	-0.89545572	0.45946472	-0.02227673	-1.0499057	0.78611159	-0.20719726	-0.98032706	0.86119198	0.17012998	-0.9760778	0.89623132	-0.15751091	-0.93160161	0.943359	0.072712793	-1.1532055	0.93417432	-0.0047950031	-1.0011897	1.3895413	-0.18911806	-1.0401679	1.3804558	0.13483332	-1.1072264	1.4158416	-0.03737211	-1.0808249	1.0474209	-0.25410958	-1.1825922	1.0667437	0.16402194	-0.88825721	0.8923053	-0.21595659	-1.129332	0.84539966	0.24764356
68	0.268	-1.4195785	0.067070886	-0.11933784	-0.74895382	0.040017805	0.020136202	-1.4154203	0.20586732	-0.15163007	-0.88516075	0.052092657	0.065772246	-1.3846096	0.19737677	-0.074312372	-0.87630492	0.080849766	-0.018907502	-1.4516621	0.25507593	-0.097675931	-0.94133951	0.027623986	0.020978132	-1.1011434	0.41224304	-0.18754623	-0.88012792	0.45143332	0.10515788	-1.0741641	0.36957766	-0.075781866	-0.89323394	0.45955633	-0.022607072	-1.0432141	0.7862505	-0.20703995	-0.97554909	0.86162189	0.17031433	-0.97008987	0.89671271	-0.15724038	-0.92568024	0.94386859	0.073039315	-1.1474783	0.93477383	-0.0049603211	-0.99552805	1.3903438	-0.18889687	-1.0343119	1.3809678	0.13516112	-1.1016569	1.4166955	-0.036939102	-1.0758858	1.0484725	-0.25376421	-1.1761558	1.0668195	0.16460247	-0.88457597	0.8918236	-0.2163334	-1.1221359	0.84555529	0.24816725
69	0.272	-1.4088966	0.069552359	-0.12025676	-0.7488929	0.039948976	0.019965089	-1.404967	0.20828389	-0.15145277	-0.88510247	0.052142305	0.065707176	-1.3738927	0.19951711	-0.074195167	-0.87614871	0.080851963	-0.019085868	-1.4413052	0.25733041	-0.097219684	-0.94134223	0.027607837	0.020965282	-1.0897799	0.41214374	-0.187963	-0.87734033	0.45177553	0.10503994	-1.0615495	0.37033653	-0.076326684	-0.89110574	0.45968742	-0.022933606	-1.0366121	0.7864519	-0.20687907	-0.97092135	0.86204832	0.1704311	-0.96418502	0.89727591	-0.15702933	-0.9199871	0.9445224	0.073597157	-1.1418408	0.93534593	-0.0051518292	-0.98987617	1.3911566	-0.18871093	-1.0284587	1.3815253	0.13547346	-1.0960562	1.4176082	-0.036525268	-1.0709378	1.0495097	-0.2534476	-1.1697903	1.0668731	0.16500605	-0.88103408	0.89133109	-0.21680177	-1.1149327	0.84572364	0.24858988
70	0.276	-1.397301	0.071796087	-0.12098583	-0.74884842	0.039901366	0.019807959	-1.3943351	0.21054463	-0.15117564	-0.88505799	0.052187781	0.065649728	-1.3628496	0.201598	-0.074008474	-0.87603215	0.080863783	-0.019244005	-1.4310041	0.25926036	-0.09676115	-0.94135632	0.027589577	0.020948946	-1.0783529	0.41222643	-0.18827307	-0.87471499	0.45210179	0.10498535	-1.0500043	0.37108601	-0.076449497	-0.88917401	0.45982941	-0.023169901	-1.0300506	0.78674019	-0.20665386	-0.96636685	0.8624781	0.17050392	-0.95836325	0.89792931	-0.15687476	-0.91456718	0.94533907	0.0743945	-1.1362997	0.93588703	-0.00537295	-0.98422538	1.3919736	-0.1885447	-1.0226572	1.3821209	0.13578951	-1.0904329	1.4185683	-0.036128417	-1.0659775	1.0505403	-0.25314684	-1.1634354	1.0669318	0.16534144	-0.87756934	0.89083454	-0.21732503	-1.1076884	0.84590784	0.24893043
